<svg width="42" height="39" viewBox="0 0 42 39" fill="none" xmlns="http://www.w3.org/2000/svg">
<path d="M15.0212 15.0204C18.7323 15.0204 21.7407 12.012 21.7407 8.3009C21.7407 4.58983 18.7323 1.58142 15.0212 1.58142C11.3102 1.58142 8.30176 4.58983 8.30176 8.3009C8.30176 12.012 11.3102 15.0204 15.0212 15.0204Z" stroke="#000001" stroke-width="2" stroke-linecap="round" stroke-linejoin="round"/>
<path d="M28.4599 37.4186H1.58203V34.4321C1.58203 30.8679 2.99792 27.4496 5.51821 24.9293C8.0385 22.4091 11.4568 20.9932 15.021 20.9932C18.5852 20.9932 22.0035 22.4091 24.5238 24.9293C27.0441 27.4496 28.4599 30.8679 28.4599 34.4321V37.4186Z" stroke="#000001" stroke-width="2" stroke-linecap="round" stroke-linejoin="round"/>
<path d="M26.9658 1.58142C28.7479 1.58142 30.4571 2.28936 31.7172 3.54951C32.9774 4.80966 33.6853 6.51878 33.6853 8.3009C33.6853 10.083 32.9774 11.7921 31.7172 13.0523C30.4571 14.3124 28.7479 15.0204 26.9658 15.0204" stroke="#000001" stroke-width="2" stroke-linecap="round" stroke-linejoin="round"/>
<path d="M31.7432 21.5605C34.2871 22.5282 36.4773 24.2456 38.0238 26.4854C39.5703 28.7252 40.4002 31.3817 40.4038 34.1035V37.4185H35.9242" stroke="#000001" stroke-width="2" stroke-linecap="round" stroke-linejoin="round"/>
</svg>
