<svg width="49" height="43" viewBox="0 0 49 43" fill="none" xmlns="http://www.w3.org/2000/svg">
<path d="M45.111 33.9522C31.4388 32.0056 17.5598 32.0056 3.88763 33.9522C3.64276 33.9869 3.39332 33.9688 3.15597 33.8994C2.91863 33.8299 2.69884 33.7106 2.51131 33.5493C2.32377 33.3881 2.1728 33.1887 2.06849 32.9645C1.96417 32.7403 1.90891 32.4964 1.9064 32.2491V3.19112C1.90306 2.94201 1.9544 2.69521 2.05682 2.4681C2.15923 2.24099 2.31022 2.03912 2.49914 1.87671C2.68806 1.71431 2.91031 1.59533 3.15022 1.52816C3.39012 1.46099 3.64184 1.44727 3.88763 1.48797C17.5623 3.39969 31.4364 3.39969 45.111 1.48797C45.3539 1.44777 45.6026 1.4607 45.84 1.52588C46.0774 1.59105 46.2978 1.70692 46.4862 1.8655C46.6745 2.02408 46.8262 2.2216 46.9308 2.44445C47.0354 2.6673 47.0905 2.91018 47.0922 3.15637V32.2143C47.0947 32.4645 47.0431 32.7123 46.9409 32.9408C46.8388 33.1692 46.6885 33.3729 46.5004 33.5379C46.3123 33.703 46.0908 33.8254 45.851 33.8969C45.6112 33.9684 45.3588 33.9873 45.111 33.9522V33.9522Z" stroke="#000001" stroke-width="2" stroke-linecap="round" stroke-linejoin="round"/>
<path d="M24.499 32.4927V41.1823" stroke="#000001" stroke-width="2" stroke-linecap="round" stroke-linejoin="round"/>
<path d="M15.8096 41.1822H33.1887" stroke="#000001" stroke-width="2" stroke-linecap="round" stroke-linejoin="round"/>
</svg>
