<svg width="41" height="41" viewBox="0 0 41 41" fill="none" xmlns="http://www.w3.org/2000/svg">
<path d="M10.0127 19.0018C14.9773 19.0018 19.002 14.9772 19.002 10.0125C19.002 5.04789 14.9773 1.02325 10.0127 1.02325C5.04807 1.02325 1.02344 5.04789 1.02344 10.0125C1.02344 14.9772 5.04807 19.0018 10.0127 19.0018Z" stroke="#000001" stroke-width="2" stroke-linecap="round" stroke-linejoin="round"/>
<path d="M30.988 19.0019C34.2977 19.0019 36.9808 16.3188 36.9808 13.009C36.9808 9.69926 34.2977 7.01617 30.988 7.01617C27.6782 7.01617 24.9951 9.69926 24.9951 13.009C24.9951 16.3188 27.6782 19.0019 30.988 19.0019Z" stroke="#000001" stroke-width="2" stroke-linecap="round" stroke-linejoin="round"/>
<path d="M29.4894 26.4929H13.0091C11.3542 26.4929 10.0127 27.8345 10.0127 29.4893V36.9804C10.0127 38.6353 11.3542 39.9768 13.0091 39.9768H29.4894C31.1443 39.9768 32.4859 38.6353 32.4859 36.9804V29.4893C32.4859 27.8345 31.1443 26.4929 29.4894 26.4929Z" stroke="#000001" stroke-width="2" stroke-linecap="round" stroke-linejoin="round"/>
<path d="M39.9766 29.4893V36.9803" stroke="#000001" stroke-width="2" stroke-linecap="round" stroke-linejoin="round"/>
</svg>
