<svg width="43" height="43" viewBox="0 0 43 43" fill="none" xmlns="http://www.w3.org/2000/svg">
<path d="M25.7554 29.4017C28.4409 29.4017 30.618 27.2246 30.618 24.5391C30.618 21.8536 28.4409 19.6765 25.7554 19.6765C23.0699 19.6765 20.8928 21.8536 20.8928 24.5391C20.8928 27.2246 23.0699 29.4017 25.7554 29.4017Z" stroke="#000001" stroke-width="2" stroke-linecap="round" stroke-linejoin="round"/>
<path d="M14.8159 41.5583C15.3284 39.1567 16.6976 36.9976 18.6915 35.4468C20.6854 33.896 23.1815 33.0488 25.7567 33.0488C28.332 33.0488 30.828 33.896 32.8219 35.4468C34.8159 36.9976 36.1851 39.1567 36.6975 41.5583" stroke="#000001" stroke-width="2" stroke-linecap="round" stroke-linejoin="round"/>
<path d="M38.4732 1.44189H4.52862C2.82434 1.44189 1.44275 2.82348 1.44275 4.52776V38.4723C1.44275 40.1766 2.82434 41.5582 4.52862 41.5582H38.4732C40.1774 41.5582 41.559 40.1766 41.559 38.4723V4.52776C41.559 2.82348 40.1774 1.44189 38.4732 1.44189Z" stroke="#000001" stroke-width="2" stroke-linecap="round" stroke-linejoin="round"/>
<line x1="17.0299" y1="6.52002" x2="25.9707" y2="6.52002" stroke="black" stroke-width="2" stroke-linecap="round"/>
</svg>
